<svg width="35" height="35" viewBox="0 0 35 35" fill="none" xmlns="http://www.w3.org/2000/svg">
<path d="M12.7157 26.5777L12.6924 8.22042C12.6924 7.77956 12.8662 7.35777 13.1778 7.0462L19.7377 0.48838C20.7805 -0.554428 22.5651 0.183168 22.5651 1.65836L22.5842 33.3389C22.5842 34.829 20.7741 35.5623 19.7377 34.492L13.182 27.7264C12.8831 27.417 12.7157 27.0058 12.7157 26.5755V26.5777Z" fill="url(#paint0_linear_210_6)"/>
<path d="M24.8138 23.445L24.8054 17.576L24.7969 11.4251C24.7969 11.1369 24.9113 10.8592 25.1148 10.6557L29.4111 6.36158C30.0936 5.67909 31.2636 6.16235 31.2636 7.12885L31.2763 27.8748C31.2763 28.8498 30.0915 29.3309 29.4111 28.6315L25.1169 24.2016C24.9219 24.0003 24.8117 23.729 24.8117 23.4471L24.8138 23.445Z" fill="url(#paint1_linear_210_6)"/>
<path d="M10.4624 23.445L10.4709 17.576L10.4794 11.4252C10.4794 11.1369 10.3649 10.8593 10.1615 10.6558L5.86518 6.36161C5.1827 5.677 4.01272 6.16026 4.01272 7.12676L4 27.8748C4 28.8498 5.18482 29.3309 5.86518 28.6315L10.1593 24.2017C10.3543 24.0003 10.4646 23.729 10.4646 23.4471L10.4624 23.445Z" fill="url(#paint2_linear_210_6)"/>
<defs>
<linearGradient id="paint0_linear_210_6" x1="17.6394" y1="0.000888064" x2="17.6394" y2="35.0028" gradientUnits="userSpaceOnUse">
<stop stop-color="#57FCFF"/>
<stop offset="0.99" stop-color="#5AA7FF"/>
</linearGradient>
<linearGradient id="paint1_linear_210_6" x1="28.0398" y1="6.04153" x2="28.0398" y2="28.9621" gradientUnits="userSpaceOnUse">
<stop stop-color="#57FCFF"/>
<stop offset="0.99" stop-color="#5AA7FF"/>
</linearGradient>
<linearGradient id="paint2_linear_210_6" x1="7.23864" y1="6.04156" x2="7.23864" y2="28.9621" gradientUnits="userSpaceOnUse">
<stop stop-color="#57FCFF"/>
<stop offset="0.99" stop-color="#5AA7FF"/>
</linearGradient>
</defs>
</svg>
