<?xml version="1.0" standalone="no"?><!DOCTYPE svg PUBLIC "-//W3C//DTD SVG 1.1//EN" "http://www.w3.org/Graphics/SVG/1.1/DTD/svg11.dtd"><svg t="1673100362388" class="icon" viewBox="0 0 1024 1024" version="1.1" xmlns="http://www.w3.org/2000/svg" p-id="12441" xmlns:xlink="http://www.w3.org/1999/xlink" width="16" height="16"><path d="M970.972416 336.3328V274.2272c0-65.1264-52.736-138.24-122.5216-138.24h-308.736l-9.3184-17.1008a86.528 86.528 0 0 0-77.312-46.5408h-338.432A116.2752 116.2752 0 0 0 0.015616 190.5152v642.2528a116.2752 116.2752 0 0 0 114.7904 117.76h794.2144a116.1728 116.1728 0 0 0 114.7904-117.76v-394.24c0-37.2736-20.1728-74.4448-52.6848-102.4z m-58.7264-16.4352h-295.9872L559.631616 204.3904h313.9584c16.4352 0 39.936 37.7344 39.936 71.0144v44.3904z m52.992 116.48v415.9488a30.72 30.72 0 0 1-27.8016 31.0784H98.831616a29.6448 29.6448 0 0 1-27.8016-31.0784V174.3872A30.72 30.72 0 0 1 98.831616 143.36h355.4816l117.76 222.6176a48.2816 48.2816 0 0 0 40.96 24.576h304.2816c18.1248 0 47.7696 29.5424 47.7696 46.08z m-30.0032 0.768" p-id="12442" fill="currentColor"></path></svg>